<?xml version="1.0" encoding="UTF-8" standalone="no"?>
<!-- Created with Inkscape (http://www.inkscape.org/) -->

<svg
   width="800"
   height="600"
   viewBox="0 0 800 600"
   version="1.1"
   id="svg1"
   inkscape:version="1.4.3 (0d15f75, 2025-12-25)"
   sodipodi:docname="GUI_MOCKUP_0.svg"
   inkscape:export-filename="C:\STORAGE\ASSETS\Sawtooth_Waveform_ExtraHarmonics_Vector_InkscapeSVG.svg"
   inkscape:export-xdpi="42.760944"
   inkscape:export-ydpi="42.760944"
   xml:space="preserve"
   xmlns:inkscape="http://www.inkscape.org/namespaces/inkscape"
   xmlns:sodipodi="http://sodipodi.sourceforge.net/DTD/sodipodi-0.dtd"
   xmlns:xlink="http://www.w3.org/1999/xlink"
   xmlns="http://www.w3.org/2000/svg"
   xmlns:svg="http://www.w3.org/2000/svg"><sodipodi:namedview
     id="namedview1"
     pagecolor="#ffffff"
     bordercolor="#000000"
     borderopacity="0.25"
     inkscape:showpageshadow="2"
     inkscape:pageopacity="0.0"
     inkscape:pagecheckerboard="0"
     inkscape:deskcolor="#d1d1d1"
     inkscape:document-units="px"
     inkscape:zoom="13.28"
     inkscape:cx="278.95331"
     inkscape:cy="318.03464"
     inkscape:window-width="1880"
     inkscape:window-height="873"
     inkscape:window-x="1739"
     inkscape:window-y="2287"
     inkscape:window-maximized="0"
     inkscape:current-layer="layer4" /><defs
     id="defs1"><rect
       x="-213.83591"
       y="-38.337115"
       width="84.341652"
       height="38.337115"
       id="rect24" /><rect
       x="115.86328"
       y="-148.23684"
       width="124.22619"
       height="15.992252"
       id="rect18" /><rect
       x="115.86328"
       y="-148.23685"
       width="124.22619"
       height="15.992252"
       id="rect18-4" /></defs><g
     inkscape:label="01_BACKGROUND"
     inkscape:groupmode="layer"
     id="layer1"
     inkscape:highlight-color="#792734"
     sodipodi:insensitive="true"><rect
       style="fill:#080808;fill-opacity:1;stroke:#17c476;stroke-width:0;stroke-linecap:round;stroke-linejoin:bevel;stroke-dasharray:none;stroke-opacity:0.536913;paint-order:markers fill stroke"
       id="rect1"
       width="800"
       height="600"
       x="2.220446e-16"
       y="-4.4408921e-16"
       inkscape:label="BG" /></g><g
     inkscape:groupmode="layer"
     id="layer2"
     inkscape:label="02_FOOTPRINT"
     sodipodi:insensitive="true"
     inkscape:highlight-color="#a9a436"><rect
       style="fill:#2d0c2f;fill-opacity:1;stroke:#dcc935;stroke-width:4;stroke-linecap:round;stroke-linejoin:round;stroke-dasharray:none;stroke-opacity:0.969188;paint-order:markers fill stroke"
       id="rect2"
       width="796"
       height="596"
       x="2"
       y="2"
       sodipodi:insensitive="true"
       inkscape:label="FOOTPRINT_RECT" /></g><g
     inkscape:groupmode="layer"
     id="layer3"
     inkscape:label="03_SECTIONS"
     style="display:inline"
     inkscape:highlight-color="#a421f3"
     sodipodi:insensitive="true"><rect
       style="fill:#1d324d;fill-opacity:0.937008;stroke:#ed5407;stroke-width:1.1;stroke-linecap:round;stroke-linejoin:bevel;stroke-miterlimit:0;stroke-dasharray:none;stroke-opacity:1;paint-order:markers fill stroke"
       id="rect26"
       width="486.45538"
       height="140.56943"
       x="-727.55322"
       y="9.371294"
       inkscape:label="BASE_SECTION_RECT" /><use
       x="0"
       y="0"
       xlink:href="#rect26"
       id="use26"
       inkscape:label="AUDIO_THUMBNAIL_SECTION"
       transform="matrix(1.6182137,0,0,2.2787878,1183.3366,168.62651)"
       style="stroke-width:0.468676;stroke-dasharray:none" /><use
       x="0"
       y="0"
       xlink:href="#rect26"
       id="use27"
       inkscape:label="FILE_IO_SECTION"
       transform="matrix(0.5061296,0,0,1.2727273,376.75559,-5.9635508)"
       style="stroke-width:2.4919;stroke-dasharray:none" /></g><g
     inkscape:groupmode="layer"
     id="layer4"
     inkscape:label="04_VISUALS"
     inkscape:highlight-color="#37f321"><rect
       style="fill:#fa4128;fill-opacity:0.347339;stroke:#10a80b;stroke-width:2;stroke-linecap:round;stroke-linejoin:bevel;stroke-miterlimit:0;stroke-dasharray:none;stroke-opacity:0.968627;paint-order:markers fill stroke"
       id="rect5"
       width="740.33228"
       height="112.45554"
       x="28.96582"
       y="201.05687"
       inkscape:label="INPUT_THUMBNAIL_RECT"
       sodipodi:insensitive="true" /><rect
       style="fill:#fa4128;fill-opacity:0.347339;stroke:#10a80b;stroke-width:2;stroke-linecap:round;stroke-linejoin:bevel;stroke-miterlimit:0;stroke-dasharray:none;stroke-opacity:0.968627;paint-order:markers fill stroke"
       id="rect14"
       width="740.33228"
       height="112.45554"
       x="28.96582"
       y="386.7789"
       inkscape:label="INPUT_THUMBNAIL_RECT" /><g
       id="g29"
       transform="matrix(0.99697261,0,0,1.0128321,2.1475763,182.48084)"
       style="display:inline;stroke-width:0.995151"
       inkscape:label="Smooth_Waveform"><line
         class="grid"
         x1="27.937"
         y1="201.92799"
         x2="27.937"
         y2="312.509"
         id="line1-5" /><line
         class="grid"
         x1="58.779999"
         y1="201.92799"
         x2="58.779999"
         y2="312.509"
         id="line2-5" /><line
         class="grid"
         x1="89.624001"
         y1="201.92799"
         x2="89.624001"
         y2="312.509"
         id="line3-1" /><line
         class="grid"
         x1="120.467"
         y1="201.92799"
         x2="120.467"
         y2="312.509"
         id="line4-7" /><line
         class="grid"
         x1="151.31"
         y1="201.92799"
         x2="151.31"
         y2="312.509"
         id="line5-1" /><line
         class="grid"
         x1="182.15401"
         y1="201.92799"
         x2="182.15401"
         y2="312.509"
         id="line6-1" /><line
         class="grid"
         x1="212.99699"
         y1="201.92799"
         x2="212.99699"
         y2="312.509"
         id="line7-5" /><line
         class="grid"
         x1="243.841"
         y1="201.92799"
         x2="243.841"
         y2="312.509"
         id="line8-2" /><line
         class="grid"
         x1="274.68399"
         y1="201.92799"
         x2="274.68399"
         y2="312.509"
         id="line9-7" /><line
         class="grid"
         x1="305.52701"
         y1="201.92799"
         x2="305.52701"
         y2="312.509"
         id="line10-6" /><line
         class="grid"
         x1="336.371"
         y1="201.92799"
         x2="336.371"
         y2="312.509"
         id="line11-1" /><line
         class="grid"
         x1="367.21399"
         y1="201.92799"
         x2="367.21399"
         y2="312.509"
         id="line12-4" /><line
         class="grid"
         x1="398.05701"
         y1="201.92799"
         x2="398.05701"
         y2="312.509"
         id="line13-2" /><line
         class="grid"
         x1="428.901"
         y1="201.92799"
         x2="428.901"
         y2="312.509"
         id="line14-3" /><line
         class="grid"
         x1="459.74399"
         y1="201.92799"
         x2="459.74399"
         y2="312.509"
         id="line15-2" /><line
         class="grid"
         x1="490.58801"
         y1="201.92799"
         x2="490.58801"
         y2="312.509"
         id="line16-2" /><line
         class="grid"
         x1="521.43103"
         y1="201.92799"
         x2="521.43103"
         y2="312.509"
         id="line17-1" /><line
         class="grid"
         x1="552.27399"
         y1="201.92799"
         x2="552.27399"
         y2="312.509"
         id="line18-6" /><line
         class="grid"
         x1="583.11798"
         y1="201.92799"
         x2="583.11798"
         y2="312.509"
         id="line19-8" /><line
         class="grid"
         x1="613.961"
         y1="201.92799"
         x2="613.961"
         y2="312.509"
         id="line20-5" /><line
         class="grid"
         x1="644.80402"
         y1="201.92799"
         x2="644.80402"
         y2="312.509"
         id="line21-7" /><line
         class="grid"
         x1="675.64801"
         y1="201.92799"
         x2="675.64801"
         y2="312.509"
         id="line22-6" /><line
         class="grid"
         x1="706.49103"
         y1="201.92799"
         x2="706.49103"
         y2="312.509"
         id="line23-1" /><line
         class="grid"
         x1="737.33502"
         y1="201.92799"
         x2="737.33502"
         y2="312.509"
         id="line24-8" /><line
         class="grid"
         x1="768.17798"
         y1="201.92799"
         x2="768.17798"
         y2="312.509"
         id="line25-9" /><line
         class="grid"
         x1="27.937"
         y1="202.17999"
         x2="768.17798"
         y2="202.17999"
         id="line26-2" /><line
         class="grid"
         x1="27.937"
         y1="312.258"
         x2="768.17798"
         y2="312.258"
         id="line27-7" /><line
         class="axis"
         x1="27.937"
         y1="255.302"
         x2="768.17798"
         y2="255.302"
         id="line28-9" /><path
         class="wave"
         d="m 27.937,255.302 c 0.309,-1.497 1.234,-6.746 1.852,-8.982 0.617,-2.236 1.234,-3.621 1.851,-4.436 0.618,-0.815 1.235,-0.148 1.852,-0.456 0.617,-0.307 1.235,-0.186 1.852,-1.388 0.617,-1.202 1.234,-3.482 1.852,-5.824 0.617,-2.341 1.234,-5.971 1.852,-8.224 0.617,-2.254 1.234,-4.449 1.851,-5.297 0.618,-0.849 1.235,-0.268 1.852,0.207 0.617,0.475 1.235,2.211 1.852,2.645 0.617,0.433 1.234,0.626 1.852,-0.046 0.617,-0.672 1.234,-2.682 1.851,-3.987 0.618,-1.304 1.235,-3.374 1.852,-3.839 0.617,-0.466 1.235,-0.106 1.852,1.046 0.617,1.153 1.234,3.911 1.852,5.867 0.617,1.956 1.234,4.59 1.851,5.868 0.618,1.278 1.235,1.661 1.852,1.801 0.617,0.14 1.235,-1.032 1.852,-0.96 0.617,0.071 1.234,0.04 1.852,1.388 0.617,1.348 1.234,4.028 1.851,6.698 0.618,2.67 1.235,6.668 1.852,9.323 0.617,2.654 1.235,5.184 1.852,6.604 0.617,1.421 1.234,2.477 1.852,1.92 0.617,-0.557 1.234,-4.252 1.851,-5.262 0.618,-1.01 1.235,-1.707 1.852,-0.797 0.617,0.909 1.235,4.191 1.852,6.252 0.617,2.061 1.234,5.27 1.852,6.113 0.617,0.843 1.234,0.29 1.851,-1.054 0.618,-1.344 1.235,-5.024 1.852,-7.01 0.617,-1.986 1.235,-4.561 1.852,-4.906 0.617,-0.344 1.234,1.146 1.852,2.838 0.617,1.693 1.234,5.536 1.851,7.32 0.618,1.784 1.235,3.561 1.852,3.385 0.618,-0.176 1.235,-2.507 1.852,-4.441 0.617,-1.934 1.235,-5.693 1.852,-7.161 0.617,-1.468 1.234,-2.334 1.852,-1.648 0.617,0.685 1.234,3.709 1.851,5.76 0.618,2.05 1.235,5.486 1.852,6.545 0.617,1.059 1.235,0.957 1.852,-0.194 0.617,-1.151 1.234,-4.674 1.852,-6.711 0.617,-2.037 1.234,-4.93 1.851,-5.512 0.618,-0.581 1.235,0.482 1.852,2.025 0.617,1.542 1.235,5.339 1.852,7.232 0.617,1.894 1.234,4.059 1.852,4.126 0.617,0.067 1.234,-2.649 1.851,-3.725 0.618,-1.076 1.235,-2.862 1.852,-2.73 0.617,0.132 1.235,1.577 1.852,3.522 0.617,1.946 1.234,5.3 1.852,8.151 0.617,2.851 1.234,6.676 1.851,8.954 0.618,2.278 1.235,3.944 1.852,4.715 0.617,0.771 1.235,-0.002 1.852,-0.089 0.617,-0.087 1.234,-0.943 1.852,-0.431 0.617,0.512 1.234,1.83 1.851,3.502 0.618,1.672 1.235,4.699 1.852,6.53 0.617,1.83 1.235,3.895 1.852,4.452 0.617,0.557 1.234,-0.165 1.852,-1.11 0.617,-0.945 1.234,-3.343 1.851,-4.562 0.618,-1.219 1.235,-2.53 1.852,-2.752 0.618,-0.222 1.235,0.792 1.852,1.422 0.617,0.63 1.235,2.264 1.852,2.36 0.617,0.095 1.234,-0.327 1.852,-1.787 0.617,-1.46 1.234,-4.494 1.851,-6.971 0.618,-2.478 1.235,-5.898 1.852,-7.894 0.617,-1.995 1.235,-3.33 1.852,-4.078 0.617,-0.749 1.234,-0.091 1.852,-0.411 0.617,-0.32 1.234,-0.19 1.851,-1.509 0.618,-1.32 1.235,-3.73 1.852,-6.408 0.617,-2.678 1.235,-6.784 1.852,-9.662 0.617,-2.877 1.234,-5.909 1.852,-7.602 0.617,-1.692 1.234,-2.1 1.851,-2.553 0.618,-0.452 1.235,0.35 1.852,-0.161 0.617,-0.512 1.235,-1.214 1.852,-2.907 0.617,-1.694 1.234,-4.759 1.852,-7.257 0.617,-2.498 1.234,-5.907 1.851,-7.734 0.618,-1.827 1.235,-2.976 1.852,-3.226 0.617,-0.25 1.235,1.083 1.852,1.727 0.617,0.644 1.234,2.066 1.852,2.138 0.617,0.072 1.234,-0.657 1.851,-1.706 0.618,-1.05 1.235,-3.429 1.852,-4.592 0.617,-1.163 1.235,-2.52 1.852,-2.386 0.617,0.135 1.234,1.572 1.852,3.194 0.617,1.622 1.234,4.685 1.851,6.538 0.618,1.853 1.235,3.766 1.852,4.579 0.617,0.814 1.235,0.369 1.852,0.303 0.617,-0.066 1.235,-1.138 1.852,-0.701 0.617,0.437 1.234,1.392 1.852,3.324 0.617,1.932 1.234,5.412 1.851,8.268 0.618,2.856 1.235,6.598 1.852,8.869 0.617,2.27 1.235,4.041 1.852,4.755 0.617,0.715 1.234,0.5 1.852,-0.468 0.617,-0.968 1.234,-4.827 1.851,-5.338 0.618,-0.511 1.235,0.682 1.852,2.272 0.617,1.59 1.235,5.407 1.852,7.27 0.617,1.863 1.234,3.915 1.852,3.909 0.617,-0.006 1.234,-2.078 1.851,-3.946 0.618,-1.868 1.235,-5.681 1.852,-7.264 0.617,-1.582 1.235,-2.753 1.852,-2.231 0.617,0.523 1.234,3.341 1.852,5.368 0.617,2.026 1.234,5.593 1.851,6.794 0.618,1.201 1.235,1.416 1.852,0.41 0.617,-1.006 1.235,-4.39 1.852,-6.446 0.617,-2.056 1.234,-5.148 1.852,-5.891 0.617,-0.742 1.234,0.013 1.851,1.438 0.618,1.424 1.235,5.158 1.852,7.112 0.617,1.954 1.235,4.374 1.852,4.611 0.617,0.236 1.234,-1.44 1.852,-3.193 0.617,-1.752 1.234,-5.598 1.851,-7.324 0.618,-1.727 1.235,-3.321 1.852,-3.036 0.617,0.284 1.235,2.774 1.852,4.743 0.617,1.969 1.235,5.68 1.852,7.069 0.617,1.39 1.234,2.055 1.852,1.268 0.617,-0.788 1.234,-5.128 1.851,-5.992 0.618,-0.864 1.235,-0.224 1.852,0.808 0.617,1.032 1.235,2.97 1.852,5.385 0.617,2.416 1.234,6.289 1.852,9.109 0.617,2.819 1.234,6.065 1.851,7.808 0.618,1.742 1.235,2.351 1.852,2.646 0.617,0.295 1.235,-0.858 1.852,-0.877 0.617,-0.02 1.234,-0.211 1.852,0.759 0.617,0.971 1.234,3.153 1.851,5.064 0.618,1.911 1.235,4.92 1.852,6.404 0.617,1.484 1.235,2.574 1.852,2.501 0.617,-0.074 1.234,-1.706 1.852,-2.941 0.617,-1.236 1.234,-3.535 1.851,-4.473 0.618,-0.937 1.235,-1.358 1.852,-1.152 0.617,0.206 1.235,1.777 1.852,2.39 0.617,0.613 1.234,1.731 1.852,1.289 0.617,-0.442 1.234,-1.953 1.851,-3.941 0.618,-1.988 1.235,-5.518 1.852,-7.989 0.617,-2.47 1.235,-5.301 1.852,-6.833 0.617,-1.531 1.234,-1.935 1.852,-2.357 0.617,-0.421 1.234,0.383 1.851,-0.17 0.618,-0.553 1.235,-1.27 1.852,-3.15 0.617,-1.879 1.235,-5.185 1.852,-8.127 0.617,-2.941 1.234,-6.975 1.852,-9.523 0.617,-2.547 1.234,-4.621 1.852,-5.762 0.617,-1.141 1.234,-0.791 1.851,-1.081 0.618,-0.291 1.235,0.227 1.852,-0.662 0.617,-0.89 1.235,-2.547 1.852,-4.675 0.617,-2.128 1.234,-5.665 1.852,-8.093 0.617,-2.427 1.234,-5.214 1.851,-6.475 0.618,-1.26 1.235,-1.33 1.852,-1.087 0.617,0.243 1.235,1.958 1.852,2.545 0.617,0.587 1.234,1.349 1.852,0.975 0.617,-0.375 1.234,-1.948 1.851,-3.22 0.618,-1.271 1.235,-3.606 1.852,-4.41 0.617,-0.804 1.235,-1.175 1.852,-0.411 0.617,0.764 1.234,3.098 1.852,4.996 0.617,1.898 1.234,4.837 1.851,6.391 0.618,1.554 1.235,2.56 1.852,2.934 0.617,0.374 1.235,-0.631 1.852,-0.69 0.617,-0.059 1.234,-0.621 1.852,0.335 0.617,0.957 1.234,2.975 1.851,5.403 0.618,2.429 1.235,6.359 1.852,9.169 0.617,2.809 1.235,5.916 1.852,7.688 0.617,1.772 1.234,3.069 1.852,2.943 0.617,-0.125 1.234,-2.613 1.851,-3.696 0.618,-1.082 1.235,-3.154 1.852,-2.798 0.617,0.357 1.235,2.949 1.852,4.938 0.617,1.989 1.234,5.662 1.852,6.997 0.617,1.335 1.234,1.866 1.852,1.011 0.617,-0.854 1.234,-4.075 1.851,-6.137 0.618,-2.061 1.235,-5.331 1.852,-6.229 0.617,-0.898 1.235,-0.457 1.852,0.84 0.617,1.297 1.234,4.943 1.852,6.944 0.617,2.001 1.234,4.66 1.851,5.064 0.618,0.404 1.235,-0.98 1.852,-2.638 0.617,-1.657 1.235,-5.493 1.852,-7.307 0.617,-1.814 1.234,-3.691 1.852,-3.575 0.617,0.115 1.234,2.355 1.851,4.267 0.618,1.912 1.235,5.693 1.852,7.204 0.617,1.51 1.235,2.485 1.852,1.857 0.617,-0.627 1.234,-3.58 1.852,-5.624 0.617,-2.044 1.234,-5.529 1.851,-6.639 0.618,-1.11 1.235,-1.122 1.852,-0.022 0.617,1.1 1.235,4.576 1.852,6.621 0.617,2.046 1.234,5.013 1.852,5.652 0.617,0.639 1.234,-0.757 1.851,-1.816 0.618,-1.06 1.235,-4.185 1.852,-4.541 0.617,-0.356 1.235,0.809 1.852,2.405 0.617,1.596 1.234,4.426 1.852,7.169 0.617,2.744 1.234,6.733 1.851,9.292 0.618,2.56 1.235,4.918 1.852,6.068 0.617,1.15 1.235,0.838 1.852,0.832 0.617,-0.007 1.234,-1.118 1.852,-0.869 0.617,0.249 1.234,0.941 1.851,2.363 0.618,1.421 1.235,4.229 1.852,6.169 0.618,1.939 1.235,4.506 1.852,5.47 0.617,0.963 1.235,0.954 1.852,0.311 0.617,-0.642 1.234,-2.868 1.852,-4.168 0.617,-1.301 1.234,-3.109 1.851,-3.634 0.618,-0.526 1.235,-0.039 1.852,0.481 0.617,0.521 1.235,2.27 1.852,2.641 0.617,0.37 1.234,0.636 1.852,-0.419 0.617,-1.056 1.234,-3.561 1.851,-5.914 0.618,-2.353 1.235,-5.96 1.852,-8.204 0.617,-2.244 1.235,-4.219 1.852,-5.261 0.617,-1.042 1.234,-0.704 1.852,-0.99 0.617,-0.286 1.234,0.243 1.851,-0.728 0.618,-0.972 1.235,-2.702 1.852,-5.101 0.617,-2.399 1.235,-6.314 1.852,-9.295 0.617,-2.981 1.234,-6.528 1.852,-8.59 0.617,-2.062 1.234,-3.106 1.851,-3.781 0.618,-0.676 1.235,0.084 1.852,-0.269 0.617,-0.353 1.235,-0.481 1.852,-1.847 0.617,-1.367 1.234,-3.935 1.852,-6.352 0.617,-2.418 1.234,-6.021 1.851,-8.153 0.618,-2.131 1.235,-3.993 1.852,-4.635 0.617,-0.643 1.235,0.223 1.852,0.78 0.617,0.556 1.234,2.232 1.852,2.56 0.617,0.327 1.234,0.216 1.851,-0.595 0.618,-0.81 1.235,-2.986 1.852,-4.269 0.618,-1.282 1.235,-3.153 1.852,-3.428 0.617,-0.274 1.235,0.454 1.852,1.781 0.617,1.327 1.234,4.233 1.852,6.179 0.617,1.946 1.234,4.371 1.851,5.497 0.618,1.127 1.235,1.213 1.852,1.263 0.617,0.05 1.235,-1.136 1.852,-0.964 0.617,0.172 1.234,0.45 1.852,1.997 0.617,1.546 1.234,4.525 1.851,7.282 0.618,2.757 1.235,6.716 1.852,9.261 0.617,2.544 1.235,4.755 1.852,6.005 0.617,1.25 1.234,2.223 1.852,1.496 0.617,-0.727 1.234,-4.92 1.851,-5.857 0.618,-0.936 1.235,-0.923 1.852,0.238 0.617,1.161 1.235,4.692 1.852,6.728 0.617,2.035 1.234,4.913 1.852,5.483 0.617,0.569 1.234,-0.515 1.851,-2.066 0.618,-1.551 1.235,-5.351 1.852,-7.24 0.617,-1.888 1.235,-4.035 1.852,-4.089 0.617,-0.055 1.234,1.92 1.852,3.761 0.617,1.842 1.234,5.668 1.851,7.289 0.618,1.621 1.235,2.899 1.852,2.436 0.617,-0.464 1.235,-3.203 1.852,-5.218 0.617,-2.015 1.234,-5.623 1.852,-6.872 0.617,-1.25 1.234,-1.578 1.851,-0.626 0.618,0.953 1.235,4.281 1.852,6.341 0.618,2.059 1.235,5.218 1.852,6.016 0.617,0.799 1.235,0.156 1.852,-1.225 0.617,-1.38 1.234,-5.085 1.852,-7.057 0.617,-1.973 1.234,-4.48 1.851,-4.777 0.618,-0.296 1.235,1.277 1.852,2.997 0.617,1.72 1.235,5.565 1.852,7.324 0.617,1.759 1.234,3.455 1.852,3.231 0.617,-0.224 1.234,-3.539 1.851,-4.577 0.618,-1.038 1.235,-2.064 1.852,-1.651 0.617,0.413 1.235,2.017 1.852,4.13 0.617,2.113 1.234,5.681 1.852,8.547 0.617,2.867 1.234,6.541 1.851,8.652 0.618,2.112 1.235,3.422 1.852,4.018 0.617,0.597 1.235,-0.347 1.852,-0.437 0.617,-0.089 1.234,-0.756 1.852,-0.097 0.617,0.66 1.234,2.283 1.851,4.055 0.618,1.772 1.235,4.842 1.852,6.579 0.617,1.738 1.235,3.502 1.852,3.848 0.617,0.346 1.234,-0.706 1.852,-1.772 0.617,-1.065 1.234,-3.477 1.851,-4.622 0.618,-1.144 1.235,-2.172 1.852,-2.243 0.617,-0.072 1.235,1.163 1.852,1.813 0.617,0.649 1.234,2.155 1.852,2.085 0.617,-0.07 1.234,-0.854 1.851,-2.504 0.618,-1.649 1.235,-4.892 1.852,-7.393 0.617,-2.501 1.235,-5.763 1.852,-7.612 0.617,-1.85 1.235,-2.864 1.852,-3.486 0.617,-0.621 1.234,0.132 1.852,-0.242 0.617,-0.375 1.234,-0.498 1.851,-2.003 0.618,-1.504 1.235,-4.236 1.852,-7.025 0.617,-2.789 1.235,-6.919 1.852,-9.708 0.617,-2.789 1.234,-5.521 1.852,-7.025 0.617,-1.505 1.234,-1.629 1.851,-2.003 0.618,-0.374 1.235,0.379 1.852,-0.243 0.617,-0.621 1.235,-1.635 1.852,-3.485 0.617,-1.849 1.234,-5.111 1.852,-7.612 0.617,-2.501 1.234,-5.744 1.851,-7.394 0.618,-1.649 1.235,-2.434 1.852,-2.503 0.617,-0.07 1.235,1.435 1.852,2.085 0.617,0.65 1.234,1.885 1.852,1.813 0.617,-0.072 1.234,-1.099 1.851,-2.243 0.618,-1.145 1.235,-3.557 1.852,-4.623 0.617,-1.065 1.235,-2.118 1.852,-1.772 0.617,0.346 1.234,2.111 1.852,3.848 0.617,1.738 1.234,4.808 1.851,6.58 0.618,1.772 1.235,3.395 1.852,4.055 0.617,0.659 1.235,-0.009 1.852,-0.098 0.617,-0.089 1.234,-1.033 1.852,-0.437 0.617,0.597 1.234,1.907 1.851,4.019 0.618,2.111 1.235,5.785 1.852,8.651 0.617,2.867 1.235,6.435 1.852,8.548 0.617,2.113 1.235,3.717 1.852,4.13 0.617,0.413 1.234,-0.613 1.852,-1.651 0.617,-1.038 1.234,-4.353 1.851,-4.577 0.618,-0.225 1.235,1.472 1.852,3.231 0.617,1.759 1.235,5.604 1.852,7.324 0.617,1.72 1.234,3.293 1.852,2.997 0.617,-0.297 1.234,-2.804 1.851,-4.777 0.618,-1.972 1.235,-5.677 1.852,-7.057 0.617,-1.381 1.235,-2.024 1.852,-1.225 0.617,0.798 1.234,3.957 1.852,6.016 0.617,2.06 1.234,5.388 1.851,6.341 0.618,0.952 1.235,0.624 1.852,-0.626 0.617,-1.249 1.235,-4.857 1.852,-6.872 0.617,-2.015 1.234,-4.754 1.852,-5.218 0.617,-0.463 1.234,0.815 1.851,2.436 0.618,1.62 1.235,5.447 1.852,7.288 0.617,1.842 1.235,3.817 1.852,3.762 0.617,-0.054 1.234,-2.201 1.852,-4.09 0.617,-1.888 1.234,-5.688 1.851,-7.239 0.618,-1.551 1.235,-2.635 1.852,-2.066 0.617,0.57 1.235,3.448 1.852,5.483 0.617,2.035 1.234,5.567 1.852,6.728 0.617,1.161 1.234,1.174 1.851,0.238 0.618,-0.937 1.235,-5.13 1.852,-5.857 0.617,-0.727 1.235,0.245 1.852,1.496 0.617,1.25 1.234,3.461 1.852,6.005 0.617,2.545 1.234,6.504 1.852,9.261 0.617,2.757 1.234,5.735 1.851,7.282 0.618,1.546 1.235,1.825 1.852,1.997 0.617,0.172 1.235,-1.014 1.852,-0.964 0.617,0.05 1.234,0.136 1.852,1.263 0.617,1.126 1.234,3.55 1.851,5.496 0.618,1.946 1.235,4.853 1.852,6.18 0.617,1.327 1.235,2.055 1.852,1.781 0.617,-0.275 1.234,-2.146 1.852,-3.429 0.617,-1.282 1.234,-3.458 1.851,-4.269 0.618,-0.81 1.235,-0.921 1.852,-0.594 0.617,0.328 1.235,2.004 1.852,2.56 0.617,0.557 1.234,1.423 1.852,0.78 0.617,-0.643 1.234,-2.504 1.851,-4.635 0.618,-2.132 1.235,-5.736 1.852,-8.153 0.617,-2.417 1.235,-4.985 1.852,-6.352 0.617,-1.366 1.234,-1.494 1.852,-1.847 0.617,-0.353 1.234,0.406 1.851,-0.269 0.618,-0.675 1.235,-1.719 1.852,-3.781 0.617,-2.062 1.235,-5.61 1.852,-8.59 0.617,-2.981 1.234,-6.896 1.852,-9.295 0.617,-2.399 1.234,-4.129 1.851,-5.101 0.618,-0.971 1.235,-0.442 1.852,-0.728 0.617,-0.286 1.235,0.052 1.852,-0.99 0.617,-1.042 1.234,-3.017 1.852,-5.261 0.617,-2.244 1.234,-5.851 1.852,-8.204 0.617,-2.353 1.234,-4.858 1.851,-5.914 0.618,-1.055 1.235,-0.789 1.852,-0.419 0.617,0.371 1.235,2.12 1.852,2.641 0.617,0.52 1.234,1.007 1.852,0.481 0.617,-0.525 1.234,-2.334 1.851,-3.634 0.618,-1.3 1.235,-3.526 1.852,-4.169 0.617,-0.642 1.235,-0.651 1.852,0.312 0.617,0.964 1.234,3.53 1.852,5.47 0.617,1.94 1.234,4.747 1.851,6.169 0.618,1.422 1.235,2.113 1.852,2.362 0.617,0.249 1.235,-0.862 1.852,-0.868 0.617,-0.006 1.234,-0.318 1.852,0.832 0.617,1.149 1.234,3.507 1.851,6.067 0.618,2.56 1.235,6.549 1.852,9.292 0.617,2.744 1.235,5.574 1.852,7.17 0.617,1.595 1.234,2.761 1.852,2.405 0.617,-0.356 1.234,-3.482 1.851,-4.541 0.618,-1.06 1.235,-2.455 1.852,-1.816 0.617,0.639 1.235,3.606 1.852,5.651 0.617,2.046 1.234,5.522 1.852,6.622 0.617,1.1 1.234,1.088 1.851,-0.022 0.618,-1.11 1.235,-4.596 1.852,-6.639 0.617,-2.044 1.235,-4.997 1.852,-5.624 0.617,-0.628 1.234,0.347 1.852,1.857 0.617,1.511 1.234,5.292 1.851,7.204 0.618,1.912 1.235,4.152 1.852,4.267 0.618,0.115 1.235,-1.761 1.852,-3.575 0.617,-1.814 1.235,-5.65 1.852,-7.307 0.617,-1.658 1.234,-3.042 1.852,-2.638 0.617,0.404 1.234,3.063 1.851,5.064 0.618,2.001 1.235,5.646 1.852,6.944 0.617,1.297 1.235,1.738 1.852,0.84 0.617,-0.898 1.234,-4.169 1.852,-6.23 0.617,-2.061 1.234,-5.282 1.851,-6.137 0.618,-0.854 1.235,-0.323 1.852,1.012 0.617,1.335 1.235,5.008 1.852,6.997 0.617,1.989 1.234,4.581 1.852,4.938 0.617,0.356 1.234,-1.716 1.851,-2.799 0.618,-1.082 1.235,-3.57 1.852,-3.695 0.617,-0.126 1.235,1.171 1.852,2.943 0.617,1.772 1.234,4.879 1.852,7.688 0.617,2.81 1.234,6.74 1.851,9.169 0.618,2.428 1.235,4.446 1.852,5.402 0.617,0.957 1.235,0.395 1.852,0.336 0.617,-0.059 1.234,-1.064 1.852,-0.69 0.617,0.374 1.234,1.38 1.851,2.934 0.618,1.554 1.235,4.493 1.852,6.391 0.617,1.898 1.235,4.232 1.852,4.996 0.617,0.764 1.234,0.392 1.852,-0.411 0.617,-0.804 1.234,-3.139 1.851,-4.411 0.618,-1.271 1.235,-2.845 1.852,-3.219 0.618,-0.374 1.235,0.388 1.852,0.975 0.617,0.587 1.235,2.302 1.852,2.545 0.617,0.243 1.234,0.173 1.852,-1.087 0.617,-1.261 1.234,-4.048 1.851,-6.476 0.618,-2.428 1.235,-5.964 1.852,-8.092 0.617,-2.128 1.235,-3.786 1.852,-4.675 0.617,-0.889 1.234,-0.371 1.852,-0.662 0.617,-0.29 1.234,0.059 1.851,-1.081 0.618,-1.141 1.312,-3.627 1.852,-5.762 0.54,-2.135 1.157,-5.873 1.389,-7.048"
         id="path28-5" /></g><g
       id="g30"
       transform="matrix(0.99697261,0,0,1.003789,2.1475763,-0.69310394)"
       style="display:inline;stroke-width:0.99962"
       inkscape:label="Sharp_Waveform"><line
         class="grid"
         x1="27.937"
         y1="201.92799"
         x2="27.937"
         y2="312.509"
         id="line1-1" /><line
         class="grid"
         x1="58.779999"
         y1="201.92799"
         x2="58.779999"
         y2="312.509"
         id="line2-2" /><line
         class="grid"
         x1="89.624001"
         y1="201.92799"
         x2="89.624001"
         y2="312.509"
         id="line3-3" /><line
         class="grid"
         x1="120.467"
         y1="201.92799"
         x2="120.467"
         y2="312.509"
         id="line4-3" /><line
         class="grid"
         x1="151.31"
         y1="201.92799"
         x2="151.31"
         y2="312.509"
         id="line5-4" /><line
         class="grid"
         x1="182.15401"
         y1="201.92799"
         x2="182.15401"
         y2="312.509"
         id="line6-11" /><line
         class="grid"
         x1="212.99699"
         y1="201.92799"
         x2="212.99699"
         y2="312.509"
         id="line7-3" /><line
         class="grid"
         x1="243.841"
         y1="201.92799"
         x2="243.841"
         y2="312.509"
         id="line8-8" /><line
         class="grid"
         x1="274.68399"
         y1="201.92799"
         x2="274.68399"
         y2="312.509"
         id="line9-74" /><line
         class="grid"
         x1="305.52701"
         y1="201.92799"
         x2="305.52701"
         y2="312.509"
         id="line10-2" /><line
         class="grid"
         x1="336.371"
         y1="201.92799"
         x2="336.371"
         y2="312.509"
         id="line11-7" /><line
         class="grid"
         x1="367.21399"
         y1="201.92799"
         x2="367.21399"
         y2="312.509"
         id="line12-7" /><line
         class="grid"
         x1="398.05701"
         y1="201.92799"
         x2="398.05701"
         y2="312.509"
         id="line13-9" /><line
         class="grid"
         x1="428.901"
         y1="201.92799"
         x2="428.901"
         y2="312.509"
         id="line14-31" /><line
         class="grid"
         x1="459.74399"
         y1="201.92799"
         x2="459.74399"
         y2="312.509"
         id="line15-9" /><line
         class="grid"
         x1="490.58801"
         y1="201.92799"
         x2="490.58801"
         y2="312.509"
         id="line16-8" /><line
         class="grid"
         x1="521.43103"
         y1="201.92799"
         x2="521.43103"
         y2="312.509"
         id="line17-6" /><line
         class="grid"
         x1="552.27399"
         y1="201.92799"
         x2="552.27399"
         y2="312.509"
         id="line18-5" /><line
         class="grid"
         x1="583.11798"
         y1="201.92799"
         x2="583.11798"
         y2="312.509"
         id="line19-0" /><line
         class="grid"
         x1="613.961"
         y1="201.92799"
         x2="613.961"
         y2="312.509"
         id="line20-2" /><line
         class="grid"
         x1="644.80402"
         y1="201.92799"
         x2="644.80402"
         y2="312.509"
         id="line21-8" /><line
         class="grid"
         x1="675.64801"
         y1="201.92799"
         x2="675.64801"
         y2="312.509"
         id="line22-60" /><line
         class="grid"
         x1="706.49103"
         y1="201.92799"
         x2="706.49103"
         y2="312.509"
         id="line23-2" /><line
         class="grid"
         x1="737.33502"
         y1="201.92799"
         x2="737.33502"
         y2="312.509"
         id="line24-4" /><line
         class="grid"
         x1="768.17798"
         y1="201.92799"
         x2="768.17798"
         y2="312.509"
         id="line25-8" /><line
         class="grid"
         x1="27.937"
         y1="202.17999"
         x2="768.17798"
         y2="202.17999"
         id="line26-6" /><line
         class="grid"
         x1="27.937"
         y1="312.258"
         x2="768.17798"
         y2="312.258"
         id="line27-5" /><line
         class="axis"
         x1="27.937"
         y1="255.302"
         x2="768.17798"
         y2="255.302"
         id="line28-0" /><path
         class="wave"
         d="m 27.937,253.167 10.281,-38.429 v 38.429 l 10.281,-38.429 v 38.429 L 58.78,214.738 v 38.429 l 10.281,-38.429 v 48.25 l 10.282,-15.372 v 15.372 l 10.281,-15.372 v 15.372 l 10.281,-15.372 v 15.372 l 10.281,-15.372 v 48.25 l 10.281,-38.429 v 38.429 l 10.281,-38.429 v 38.429 l 10.281,-38.429 v 38.429 l 10.281,-38.429 v -4.27 l 10.282,-38.429 v 38.429 l 10.281,-38.429 v 38.429 l 10.281,-38.429 v 38.429 l 10.281,-38.429 v 48.25 l 10.281,-15.372 v 15.372 l 10.281,-15.372 v 15.372 l 10.281,-15.372 v 15.372 l 10.281,-15.372 v 48.25 l 10.282,-38.429 v 38.429 l 10.281,-38.429 v 38.429 l 10.281,-38.429 v 38.429 l 10.281,-38.429 v -4.27 l 10.281,-38.429 v 38.429 l 10.281,-38.429 v 38.429 l 10.281,-38.429 v 38.429 l 10.281,-38.429 v 48.25 l 10.282,-15.372 v 15.372 l 10.281,-15.372 v 15.372 l 10.281,-15.372 v 15.372 l 10.281,-15.372 v 48.25 l 10.281,-38.429 v 38.429 l 10.281,-38.429 v 38.429 l 10.281,-38.429 v 38.429 l 10.281,-38.429 v -4.27 l 10.282,-38.429 v 38.429 l 10.281,-38.429 v 38.429 l 10.281,-38.429 v 38.429 l 10.281,-38.429 v 48.25 l 10.281,-15.372 v 15.372 l 10.281,-15.372 v 15.372 l 10.281,-15.372 v 15.372 l 10.281,-15.372 v 48.25 l 10.282,-38.429 v 38.429 l 10.281,-38.429 v 38.429 l 10.281,-38.429 v 38.429 l 10.281,-38.429 v -4.27 l 10.281,-38.429 v 38.429 l 10.281,-38.429 v 38.429 l 10.281,-38.429 v 38.429 l 10.281,-38.429 v 48.25 l 10.282,-15.372 v 15.372 l 10.281,-15.372 v 15.372 l 10.281,-15.372 v 15.372 l 10.281,-15.372 v 48.25 l 10.281,-38.429 v 38.429 l 10.281,-38.429 v 38.429 l 10.281,-38.429 v 38.429 l 10.281,-38.429 v -4.27 l 10.282,-38.429 v 38.429 l 10.281,-38.429 v 38.429 l 10.281,-38.429 v 38.429 l 10.281,-38.429 v 48.25 l 10.281,-15.372 v 15.372 l 10.281,-15.372 v 15.372 l 10.281,-15.372 v 15.372 l 10.281,-15.372 v 48.25 l 10.282,-38.429 v 38.429 l 10.281,-38.429 v 38.429 l 10.281,-38.429 v 38.429 l 10.281,-38.429"
         id="path28-9" /></g><rect
       style="fill:#51dff1;fill-opacity:0.94982082;stroke:none;stroke-width:0.1;stroke-linecap:round;stroke-linejoin:round;stroke-miterlimit:0;stroke-dasharray:none;stroke-opacity:0.0358423;paint-order:markers fill stroke"
       id="rect30"
       width="0.63581711"
       height="14.984021"
       x="-57.662323"
       y="317.55499" /><use
       x="0"
       y="0"
       xlink:href="#rect30"
       id="use30"
       transform="translate(87.749396,2.4450073)" /><use
       x="0"
       y="0"
       xlink:href="#rect30"
       id="use31"
       transform="translate(333.29251,2.4450073)" /><use
       x="0"
       y="0"
       xlink:href="#rect30"
       id="use32"
       transform="matrix(0.00611622,1.0000019,-6.6735164,-0.00159613,2251.0119,394.11139)"
       style="stroke-width:0.3871" /><use
       x="0"
       y="0"
       xlink:href="#rect30"
       id="use33"
       transform="matrix(0.00611622,1.0000019,-6.6735164,-0.00159613,2395.8161,393.13247)"
       style="stroke-width:0.3871" /></g><g
     inkscape:groupmode="layer"
     id="layer5"
     inkscape:label="05_CONTROLS"
     inkscape:highlight-color="#21bef3"
     sodipodi:insensitive="true"><g
       id="g23"
       inkscape:label="BASE_FILE_CONTROL"><rect
         style="fill:#ff8272;fill-opacity:0.937008;stroke:#a8790b;stroke-width:2;stroke-linecap:round;stroke-linejoin:bevel;stroke-miterlimit:0;stroke-dasharray:none;stroke-opacity:0.968627;paint-order:markers fill stroke"
         id="rect16"
         width="201.05687"
         height="45.152603"
         x="-172.94298"
         y="-161.01588"
         inkscape:label="BASE_FILE_CONTROL_RECT" /><text
         xml:space="preserve"
         id="text17-2"
         style="font-style:normal;font-variant:normal;font-weight:normal;font-stretch:normal;font-size:5.93152px;line-height:1.9;font-family:Sitka;-inkscape-font-specification:Sitka;text-align:center;letter-spacing:1.33459px;writing-mode:lr-tb;direction:ltr;white-space:pre;shape-inside:url(#rect18-4);display:inline;fill:#54d635;fill-opacity:0.903226;stroke:#54240b;stroke-width:0.799883;stroke-linecap:round;stroke-linejoin:bevel;stroke-miterlimit:0;stroke-dasharray:none;stroke-opacity:0.397638;paint-order:markers fill stroke"
         transform="matrix(2.1779775,0,0,2.8704734,-460.71417,268.96463)"
         inkscape:label="BASE_FILE_CONTROL_TEXT"
         x="62.191319"
         y="0"><tspan
           x="140.77706"
           y="-141.07764"
           id="tspan3">~Input/File/Path.wav</tspan></text><rect
         style="fill:#ff8272;fill-opacity:0.937008;stroke:#923e14;stroke-width:2.00001;stroke-linecap:round;stroke-linejoin:bevel;stroke-miterlimit:0;stroke-dasharray:none;stroke-opacity:0.968627;paint-order:markers fill stroke"
         id="rect25"
         width="190.87904"
         height="1"
         x="-168.10001"
         y="-126.23888"
         inkscape:label="BASE_FILE_CONTROL_UNDERLINE" /></g><g
       id="g20"
       inkscape:label="BASE_LABEL"><rect
         style="fill:#d68d35;fill-opacity:1;stroke:#5fe2aa;stroke-width:2;stroke-linecap:round;stroke-linejoin:bevel;stroke-miterlimit:0;stroke-dasharray:none;stroke-opacity:0.968627;paint-order:markers fill stroke"
         id="rect17"
         width="183.16621"
         height="39.189049"
         x="99.676498"
         y="-155.90427"
         inkscape:label="BASE_LABEL_RECT" /><text
         xml:space="preserve"
         id="text17"
         style="font-size:8.76659px;line-height:1.9;text-align:center;letter-spacing:0.144519px;writing-mode:lr-tb;direction:ltr;white-space:pre;shape-inside:url(#rect18);display:inline;fill:#54d635;fill-opacity:0.903226;stroke:#923e14;stroke-width:1.19545;stroke-linecap:round;stroke-linejoin:bevel;stroke-miterlimit:0;stroke-dasharray:none;stroke-opacity:0.968627;paint-order:markers fill stroke"
         transform="matrix(1.40082,0,0,1.9981063,-56.413705,144.23892)"
         inkscape:label="BASE_LABEL_TEXT"
         x="62.191319"
         y="0"><tspan
           x="125.61297"
           y="-137.38916"
           id="tspan5"><tspan
             style="font-family:'Segoe Fluent Icons';-inkscape-font-specification:'Segoe Fluent Icons'"
             id="tspan4">Grain Shifter Processor</tspan></tspan></text></g><use
       x="0"
       y="0"
       xlink:href="#g20"
       id="use21"
       inkscape:label="ACTIVE_PROCESSOR_LABEL"
       transform="translate(175.4988,176.35073)" /><use
       x="0"
       y="0"
       xlink:href="#g23"
       id="use23"
       transform="translate(200.20493,182.01588)"
       inkscape:label="INPUT_FILE_CONTROL" /><use
       x="0"
       y="0"
       xlink:href="#g23"
       id="use24"
       transform="translate(199.353,250.01588)"
       inkscape:label="OUTPUT_FILE_CONTROL" /></g><g
     inkscape:groupmode="layer"
     id="layer6"
     inkscape:label="06_OVERLAY"
     sodipodi:insensitive="true" /><style
     id="style1">
    .grid { stroke: #dcdcdc; stroke-width: 0.75; }
    .axis { stroke: #b8b8b8; stroke-width: 0.75; }
    .wave {
      fill: none;
      stroke: #111;
      stroke-width: 2;
      stroke-linejoin: miter;
      stroke-linecap: square;
      vector-effect: non-scaling-stroke;
    }
  </style><style
     id="style1-4">
    .grid { stroke: #dcdcdc; stroke-width: 0.75; }
    .axis { stroke: #b8b8b8; stroke-width: 0.75; }
    .wave {
      fill: none;
      stroke: #c5e92e;
      stroke-width: 2;
      stroke-linejoin: miter;
      stroke-linecap: square;
      vector-effect: non-scaling-stroke;
    }
  </style><style
     id="style1-43">
    .grid { stroke: #dcdcdc; stroke-width: 0.75; }
    .axis { stroke: #b8b8b8; stroke-width: 0.75; }
    .wave {
      fill: none;
      stroke: #c5e92e;
      stroke-width: 2;
      stroke-linejoin: miter;
      stroke-linecap: square;
      vector-effect: non-scaling-stroke;
    }
  </style></svg>
